<?xml version="1.0" encoding="utf-8"?>
<!-- Generator: Adobe Illustrator 24.3.0, SVG Export Plug-In . SVG Version: 6.00 Build 0)  -->
<svg version="1.1" id="Calque_1" xmlns="http://www.w3.org/2000/svg" xmlns:xlink="http://www.w3.org/1999/xlink" x="0px" y="0px"
	 viewBox="0 0 24 24" style="enable-background:new 0 0 24 24;" xml:space="preserve">
<style type="text/css">
	.st0{opacity:0.34;fill:#2CA5DE;}
	.st1{fill:none;stroke:#2CA5DE;stroke-width:0.75;stroke-miterlimit:10;}
	.st2{fill:#2CA5DE;}
	.st3{fill:none;stroke:#009C3C;stroke-linecap:round;stroke-miterlimit:10;}
	.st4{fill:none;stroke:#009C3C;stroke-miterlimit:10;}
</style>
<path class="st0" d="M11.2,23.5H2.1c0,0-1.6,0-1.6-2.7S0.5,3,0.5,3S0.4,0.7,2.6,0.7s18.9,0,18.9,0s2,0.3,2,2s0,8.2,0,8.2
	S5.7,5.3,11.2,23.5z"/>
<circle class="st1" cx="17" cy="17" r="6.7"/>
<path class="st2" d="M22.3,16.2h-1.5c-0.1-1.2-0.2-2.3-0.5-3.4C21.3,13.6,22,14.8,22.3,16.2z"/>
<path class="st2" d="M15.9,18H18c-0.2,2.3-0.7,3.8-1.1,4.3C16.6,21.8,16.1,20.3,15.9,18z"/>
<path class="st2" d="M15.9,16.2c0.2-2.4,0.7-3.9,1.1-4.5c0.4,0.6,0.9,2.1,1.1,4.5H15.9z"/>
<path class="st2" d="M13.6,12.8c-0.2,1-0.4,2.2-0.5,3.4h-1.5C12,14.8,12.7,13.6,13.6,12.8z"/>
<path class="st2" d="M11.7,18h1.5c0.1,1.1,0.2,2.2,0.5,3.2C12.7,20.5,12,19.3,11.7,18z"/>
<path class="st2" d="M20.3,21.3c0.2-1,0.4-2.1,0.5-3.2h1.5C22,19.3,21.3,20.5,20.3,21.3z"/>
<path class="st2" d="M21.9,7.2 M5,3.5C5,4,4.6,4.4,4.1,4.4S3.2,4,3.2,3.5s0.4-0.9,0.9-0.9S5,3,5,3.5z M8.3,3.5
	c0,0.5-0.4,0.9-0.9,0.9S6.4,4,6.4,3.5s0.4-0.9,0.9-0.9S8.3,3,8.3,3.5z"/>
<path class="st3" d="M11.2,23.5H2.1c0,0-1.6,0-1.6-2.7S0.5,3,0.5,3S0.4,0.7,2.6,0.7s18.9,0,18.9,0s2,0.3,2,2s0,8.2,0,8.2"/>
<line class="st4" x1="1.2" y1="5.3" x2="22.8" y2="5.3"/>
<path class="st2" d="M-12.3,12.8"/>
</svg>
